<?xml version="1.0" encoding="UTF-8" standalone="no"?>
<!DOCTYPE svg PUBLIC "-//W3C//DTD SVG 20010904//EN"
              "http://www.w3.org/TR/2001/REC-SVG-20010904/DTD/svg10.dtd">

<svg xmlns="http://www.w3.org/2000/svg"
     width="4.26667in" height="1.66667in"
     viewBox="0 0 1280 500">
  <path id="靸択範囲"
        fill="white" stroke="black" stroke-width="1"
        d="M 117.00,161.00
           C 117.00,161.00 107.42,212.00 107.42,212.00
             107.42,212.00 84.39,331.00 84.39,331.00
             84.39,331.00 75.00,380.00 75.00,380.00
             75.00,380.00 110.00,380.00 110.00,380.00
             111.97,380.00 115.69,380.26 117.27,379.01
             118.82,377.78 119.22,374.84 119.60,373.00
             119.60,373.00 122.58,358.00 122.58,358.00
             122.58,358.00 133.20,303.00 133.20,303.00
             133.96,299.17 135.19,288.07 138.31,286.02
             140.19,284.79 143.79,285.00 146.00,285.00
             146.00,285.00 213.00,285.00 213.00,285.00
             215.04,285.00 218.77,285.24 220.42,283.98
             222.40,282.47 223.10,276.48 223.60,274.00
             223.60,274.00 229.00,247.00 229.00,247.00
             229.00,247.00 144.00,247.00 144.00,247.00
             144.00,247.00 153.00,199.00 153.00,199.00
             153.00,199.00 238.00,199.00 238.00,199.00
             238.00,199.00 245.42,197.98 245.42,197.98
             245.42,197.98 248.60,188.00 248.60,188.00
             248.60,188.00 254.00,161.00 254.00,161.00
             254.00,161.00 117.00,161.00 117.00,161.00 Z
           M 678.00,161.00
           C 678.00,161.00 668.42,212.00 668.42,212.00
             668.42,212.00 645.39,331.00 645.39,331.00
             645.39,331.00 636.00,380.00 636.00,380.00
             636.00,380.00 671.00,380.00 671.00,380.00
             672.97,380.00 676.69,380.26 678.27,379.01
             679.82,377.78 680.22,374.84 680.60,373.00
             680.60,373.00 683.58,358.00 683.58,358.00
             683.58,358.00 694.20,303.00 694.20,303.00
             694.96,299.17 696.19,288.07 699.31,286.02
             701.19,284.79 704.79,285.00 707.00,285.00
             707.00,285.00 774.00,285.00 774.00,285.00
             776.04,285.00 779.77,285.24 781.42,283.98
             783.40,282.47 784.10,276.48 784.60,274.00
             784.60,274.00 790.00,247.00 790.00,247.00
             790.00,247.00 705.00,247.00 705.00,247.00
             705.00,247.00 714.00,199.00 714.00,199.00
             714.00,199.00 799.00,199.00 799.00,199.00
             799.00,199.00 806.42,197.98 806.42,197.98
             806.42,197.98 809.60,188.00 809.60,188.00
             809.60,188.00 815.00,161.00 815.00,161.00
             815.00,161.00 678.00,161.00 678.00,161.00 Z
           M 416.00,228.00
           C 416.00,228.00 407.80,272.00 407.80,272.00
             407.80,272.00 392.58,351.00 392.58,351.00
             392.58,351.00 387.00,380.00 387.00,380.00
             387.00,380.00 416.00,380.00 416.00,380.00
             416.00,380.00 420.58,355.00 420.58,355.00
             420.58,355.00 423.98,340.00 423.98,340.00
             423.98,340.00 435.00,329.00 435.00,329.00
             435.00,329.00 456.00,380.00 456.00,380.00
             456.00,380.00 487.00,380.00 487.00,380.00
             487.00,380.00 465.30,331.00 465.30,331.00
             463.66,327.36 457.38,315.28 458.40,312.04
             459.35,308.99 468.19,302.42 471.00,300.08
             478.35,293.95 500.32,277.00 505.00,271.00
             505.00,271.00 476.00,271.00 476.00,271.00
             467.04,271.06 464.62,274.83 458.00,280.42
             458.00,280.42 430.00,304.00 430.00,304.00
             430.00,304.00 436.20,274.00 436.20,274.00
             436.20,274.00 445.00,228.00 445.00,228.00
             445.00,228.00 416.00,228.00 416.00,228.00 Z
           M 1149.00,289.00
           C 1146.00,282.56 1144.89,278.13 1138.99,273.43
             1128.85,265.25 1112.55,267.10 1102.00,273.43
             1097.92,275.94 1093.33,280.42 1090.18,284.00
             1074.79,301.51 1066.87,339.84 1074.36,362.00
             1076.74,369.06 1081.32,375.94 1088.00,379.59
             1102.97,387.75 1125.79,380.26 1133.00,365.00
             1133.00,365.00 1131.00,380.00 1131.00,380.00
             1131.00,380.00 1160.00,380.00 1160.00,380.00
             1160.00,380.00 1167.20,342.00 1167.20,342.00
             1167.20,342.00 1180.80,272.00 1180.80,272.00
             1180.80,272.00 1189.00,228.00 1189.00,228.00
             1189.00,228.00 1169.00,228.00 1169.00,228.00
             1169.00,228.00 1160.98,229.60 1160.98,229.60
             1160.98,229.60 1157.00,246.00 1157.00,246.00
             1157.00,246.00 1149.00,289.00 1149.00,289.00 Z
           M 874.00,268.22
           C 867.99,269.55 861.41,270.97 856.00,273.90
             835.67,284.90 824.04,309.44 824.00,332.00
             824.00,332.00 824.00,342.00 824.00,342.00
             824.12,366.98 841.44,382.71 866.00,383.00
             892.97,383.31 912.70,369.66 921.91,344.00
             924.17,337.70 925.36,330.62 926.15,324.00
             928.91,300.91 923.91,278.17 899.00,270.35
             893.83,268.73 888.40,268.02 883.00,268.22
             883.00,268.22 874.00,268.22 874.00,268.22 Z
           M 999.00,268.22
           C 992.99,269.55 986.41,270.97 981.00,273.90
             960.67,284.90 949.04,309.44 949.00,332.00
             949.00,332.00 949.00,342.00 949.00,342.00
             949.12,366.98 966.44,382.71 991.00,383.00
             1017.97,383.31 1037.70,369.66 1046.91,344.00
             1049.17,337.70 1050.36,330.62 1051.15,324.00
             1053.91,300.91 1048.91,278.17 1024.00,270.35
             1018.83,268.73 1013.40,268.02 1008.00,268.22
             1008.00,268.22 999.00,268.22 999.00,268.22 Z
           M 320.00,366.00
           C 320.00,366.00 318.00,380.00 318.00,380.00
             318.00,380.00 347.00,380.00 347.00,380.00
             347.00,380.00 356.60,329.00 356.60,329.00
             356.60,329.00 368.00,271.00 368.00,271.00
             368.00,271.00 339.00,271.00 339.00,271.00
             339.00,271.00 330.40,317.00 330.40,317.00
             328.62,325.88 326.58,339.17 322.62,347.00
             318.91,354.35 309.92,363.14 301.02,358.69
             298.60,357.48 296.72,355.52 295.74,353.00
             294.90,350.84 294.96,347.33 295.01,345.00
             295.01,345.00 308.00,271.00 308.00,271.00
             308.00,271.00 288.00,271.00 288.00,271.00
             286.05,271.00 282.29,270.74 280.74,271.99
             278.77,273.57 276.66,287.72 276.00,291.00
             276.00,291.00 268.00,332.00 268.00,332.00
             266.79,338.06 263.77,352.37 264.18,358.00
             264.63,364.12 266.33,371.05 270.53,375.70
             278.63,384.66 295.82,384.72 306.00,379.62
             311.95,376.65 316.87,371.83 320.00,366.00 Z
           M 877.00,291.33
           C 892.07,289.70 897.83,299.21 898.00,313.00
             898.19,329.48 892.46,356.35 873.00,359.67
             858.81,362.10 853.44,350.93 852.30,339.00
             851.94,335.25 852.63,333.59 852.92,330.00
             854.15,314.62 860.05,295.40 877.00,291.33 Z
           M 1002.00,291.33
           C 1017.07,289.70 1022.83,299.21 1023.00,313.00
             1023.19,329.48 1017.46,356.35 998.00,359.67
             983.81,362.10 978.44,350.93 977.30,339.00
             976.94,335.25 977.63,333.59 977.92,330.00
             979.15,314.62 985.05,295.40 1002.00,291.33 Z
           M 1124.00,291.33
           C 1140.43,289.66 1143.15,304.17 1143.00,317.00
             1142.83,331.16 1134.96,356.66 1119.00,359.66
             1105.50,362.20 1101.12,351.10 1100.17,340.00
             1099.85,336.17 1100.45,334.58 1100.84,331.00
             1102.42,316.22 1107.31,295.47 1124.00,291.33 Z
           M 516.00,309.00
           C 516.00,309.00 512.00,335.00 512.00,335.00
             512.00,335.00 607.00,335.00 607.00,335.00
             607.00,335.00 614.41,333.98 614.41,333.98
             614.41,333.98 616.75,327.00 616.75,327.00
             616.75,327.00 619.00,309.00 619.00,309.00
             619.00,309.00 516.00,309.00 516.00,309.00 Z" />
</svg>
