<?xml version="1.0" encoding="UTF-8" standalone="no"?>
<!DOCTYPE svg PUBLIC "-//W3C//DTD SVG 20010904//EN"
              "http://www.w3.org/TR/2001/REC-SVG-20010904/DTD/svg10.dtd">

<svg xmlns="http://www.w3.org/2000/svg"
     width="486.153mm" height="85.3766mm"
     viewBox="0 0 2756 484">
  <path id="靸択範囲"
        fill="white" stroke="black" stroke-width="1"
        d="M 2648.00,219.00
           C 2648.00,219.00 2635.00,205.32 2635.00,205.32
             2623.05,195.26 2609.12,192.83 2594.00,193.00
             2566.14,193.33 2537.27,208.73 2517.00,226.84
             2483.52,256.73 2460.06,300.95 2456.91,346.00
             2456.91,346.00 2456.00,359.00 2456.00,359.00
             2456.19,375.81 2460.50,398.37 2468.87,413.00
             2481.14,434.45 2507.20,449.71 2532.00,450.00
             2553.53,450.25 2570.53,444.09 2588.00,431.57
             2588.00,431.57 2608.00,415.00 2608.00,415.00
             2610.23,420.57 2612.27,426.36 2616.21,431.00
             2632.69,450.41 2668.09,457.61 2689.00,441.47
             2702.43,431.11 2713.95,403.16 2719.33,387.00
             2720.93,382.21 2724.41,370.70 2724.82,366.00
             2725.53,358.10 2719.71,356.78 2713.00,357.32
             2702.16,358.21 2702.30,365.99 2699.71,375.00
             2695.85,388.43 2689.11,410.33 2680.48,420.98
             2671.96,431.51 2658.30,433.17 2652.48,419.00
             2647.43,406.69 2651.60,395.10 2654.63,383.00
             2654.63,383.00 2670.13,321.00 2670.13,321.00
             2670.13,321.00 2704.88,180.00 2704.88,180.00
             2704.88,180.00 2717.42,129.00 2717.42,129.00
             2717.42,129.00 2729.37,80.00 2729.37,80.00
             2729.37,80.00 2734.68,55.02 2734.68,55.02
             2734.26,46.55 2719.38,50.54 2714.00,50.91
             2714.00,50.91 2688.00,52.91 2688.00,52.91
             2688.00,52.91 2662.00,54.72 2662.00,54.72
             2656.92,55.32 2648.69,54.45 2644.21,56.70
             2638.51,59.56 2635.74,75.59 2639.47,79.69
             2641.90,82.35 2645.73,81.99 2649.00,82.00
             2656.69,82.02 2673.89,81.30 2677.82,89.02
             2679.79,92.90 2677.90,97.13 2676.88,101.00
             2676.88,101.00 2671.13,124.00 2671.13,124.00
             2671.13,124.00 2656.13,184.00 2656.13,184.00
             2656.13,184.00 2648.00,219.00 2648.00,219.00 Z
           M 872.00,300.00
           C 872.00,300.00 900.00,273.99 900.00,273.99
             916.62,257.77 937.89,235.00 958.00,223.43
             966.39,218.60 982.26,211.82 992.00,214.64
             996.10,215.82 998.90,218.23 1002.00,221.00
             988.37,222.81 975.83,229.14 969.38,242.00
             964.24,252.25 963.98,267.99 974.02,275.36
             979.89,279.68 985.03,280.08 992.00,280.00
             1002.18,279.88 1013.78,274.30 1019.78,265.96
             1032.66,248.07 1033.55,199.04 998.00,193.44
             978.36,190.34 957.35,200.58 942.00,211.88
             920.78,227.51 903.57,247.69 884.00,265.16
             874.60,273.56 863.52,283.85 852.00,289.00
             852.00,289.00 863.13,242.00 863.13,242.00
             863.13,242.00 880.13,174.00 880.13,174.00
             880.13,174.00 903.13,80.00 903.13,80.00
             903.13,80.00 907.48,60.00 907.48,60.00
             908.09,57.55 909.28,53.65 907.48,51.60
             905.50,49.60 900.58,49.97 898.00,50.00
             898.00,50.00 888.00,50.91 888.00,50.91
             888.00,50.91 858.00,53.00 858.00,53.00
             858.00,53.00 831.00,54.99 831.00,54.99
             826.90,55.09 819.54,55.02 816.22,57.59
             811.77,61.04 808.04,76.47 813.15,80.26
             816.41,82.68 823.91,81.98 828.00,82.00
             836.11,82.04 853.64,82.20 852.24,94.00
             852.24,94.00 844.15,126.00 844.15,126.00
             844.15,126.00 830.37,180.00 830.37,180.00
             830.37,180.00 801.63,297.00 801.63,297.00
             801.63,297.00 784.58,366.00 784.58,366.00
             784.58,366.00 773.00,414.00 773.00,414.00
             772.03,418.51 769.07,431.02 769.19,435.00
             769.51,445.31 780.77,451.18 790.00,450.48
             811.44,448.87 815.56,433.81 819.65,416.00
             819.65,416.00 829.12,378.00 829.12,378.00
             829.12,378.00 836.13,348.00 836.13,348.00
             836.13,348.00 841.15,329.00 841.15,329.00
             841.76,326.75 842.85,322.13 844.56,320.61
             848.03,317.52 860.83,322.61 865.00,324.00
             870.10,325.70 877.42,327.98 882.00,330.51
             892.93,336.57 903.75,349.81 902.82,363.00
             901.44,382.34 897.06,382.45 900.16,406.00
             903.82,433.82 924.35,448.27 951.00,450.29
             953.84,450.28 954.99,450.68 958.00,450.29
             963.94,450.11 968.47,449.50 974.00,447.13
             992.73,439.09 1003.50,421.84 1011.69,404.00
             1016.16,394.27 1020.53,382.31 1023.42,372.00
             1026.09,362.48 1025.96,356.70 1014.00,357.51
             1001.27,358.38 1003.18,362.28 997.98,379.00
             993.99,391.81 986.30,410.43 976.96,419.99
             968.85,428.29 955.08,435.23 946.70,422.98
             942.60,416.99 942.63,407.91 943.58,401.00
             943.58,401.00 949.00,365.00 949.00,365.00
             949.13,353.47 948.79,345.34 942.65,335.00
             938.32,327.72 921.92,314.28 914.00,310.88
             914.00,310.88 898.00,305.98 898.00,305.98
             887.95,302.85 882.89,300.88 872.00,300.00 Z
           M 165.00,264.00
           C 165.00,264.00 209.00,264.00 209.00,264.00
             209.00,264.00 228.00,265.00 228.00,265.00
             235.05,265.09 246.57,266.47 251.96,271.22
             263.19,281.15 258.20,301.33 255.13,314.00
             253.16,322.10 250.44,329.78 262.00,330.00
             264.86,330.05 270.34,330.32 272.73,328.83
             275.24,327.25 276.11,323.67 277.00,321.00
             277.00,321.00 282.13,302.00 282.13,302.00
             282.13,302.00 304.58,210.00 304.58,210.00
             304.58,210.00 311.19,181.00 311.19,181.00
             312.06,176.13 311.71,172.27 305.98,171.23
             302.39,170.57 293.46,171.45 291.08,174.43
             289.06,176.97 286.57,188.94 285.26,193.00
             281.02,206.08 274.46,220.01 263.00,228.21
             253.41,235.08 242.40,236.17 231.00,237.08
             231.00,237.08 172.00,238.00 172.00,238.00
             172.00,238.00 181.63,197.00 181.63,197.00
             181.63,197.00 200.87,121.00 200.87,121.00
             200.87,121.00 207.15,97.00 207.15,97.00
             208.11,93.46 209.02,88.99 212.14,86.74
             215.39,84.39 224.88,84.01 229.00,84.00
             260.35,83.95 291.76,81.11 323.00,84.85
             334.68,86.24 352.24,87.61 362.00,93.96
             376.38,103.33 381.81,123.72 382.00,140.00
             382.00,140.00 381.09,159.00 381.09,159.00
             381.09,159.00 380.58,168.00 380.58,168.00
             380.58,168.00 378.52,188.00 378.52,188.00
             380.05,195.34 391.75,195.25 396.89,192.57
             401.00,190.43 400.75,186.98 401.28,183.00
             401.28,183.00 404.15,161.00 404.15,161.00
             404.15,161.00 412.16,95.00 412.16,95.00
             412.16,95.00 415.38,66.00 415.38,66.00
             415.93,58.24 411.60,57.04 405.00,57.00
             405.00,57.00 345.00,57.00 345.00,57.00
             345.00,57.00 113.00,57.00 113.00,57.00
             111.03,57.00 107.85,56.89 106.05,57.60
             100.52,59.80 99.05,69.74 98.62,75.00
             97.85,84.41 105.34,82.99 112.00,83.00
             112.00,83.00 124.00,83.91 124.00,83.91
             124.00,83.91 141.00,85.00 141.00,85.00
             144.24,85.29 149.22,85.63 150.68,89.14
             151.92,92.12 147.36,107.07 146.37,111.00
             146.37,111.00 131.37,171.00 131.37,171.00
             131.37,171.00 84.63,358.00 84.63,358.00
             84.63,358.00 74.87,396.00 74.87,396.00
             73.41,401.84 72.72,408.57 67.94,412.73
             62.64,417.34 49.02,417.97 42.00,418.00
             42.00,418.00 31.00,418.00 31.00,418.00
             26.83,418.05 15.35,418.71 12.51,421.51
             10.38,423.60 9.36,428.14 8.63,431.00
             7.74,434.49 6.20,438.59 9.32,441.44
             13.77,445.51 24.17,443.01 30.00,443.00
             30.00,443.00 139.00,443.00 139.00,443.00
             139.00,443.00 156.00,444.00 156.00,444.00
             156.00,444.00 183.00,444.00 183.00,444.00
             193.80,443.98 194.82,440.06 196.27,430.00
             196.77,426.51 197.82,422.24 194.69,419.60
             192.45,417.71 188.77,418.01 186.00,418.00
             186.00,418.00 160.00,418.00 160.00,418.00
             160.00,418.00 147.00,416.98 147.00,416.98
             142.62,416.68 133.37,415.35 130.70,411.73
             128.33,408.73 130.07,404.33 130.70,401.00
             130.70,401.00 137.37,374.00 137.37,374.00
             137.37,374.00 155.63,302.00 155.63,302.00
             155.63,302.00 165.00,264.00 165.00,264.00 Z
           M 1634.00,264.00
           C 1634.00,264.00 1678.00,264.00 1678.00,264.00
             1678.00,264.00 1697.00,265.00 1697.00,265.00
             1704.10,265.09 1716.45,266.54 1721.81,271.39
             1732.83,281.33 1726.84,303.63 1723.90,316.00
             1722.11,323.51 1721.60,329.82 1731.00,330.00
             1733.98,330.05 1739.32,330.30 1741.86,328.83
             1744.74,327.15 1745.40,323.95 1746.34,321.00
             1746.34,321.00 1751.37,302.00 1751.37,302.00
             1751.37,302.00 1773.65,211.00 1773.65,211.00
             1773.65,211.00 1780.34,182.00 1780.34,182.00
             1781.23,177.51 1781.44,172.71 1775.98,171.31
             1771.88,170.26 1762.57,171.48 1760.09,175.15
             1758.27,177.82 1756.01,188.91 1754.65,193.00
             1749.85,207.39 1743.75,220.13 1731.00,229.21
             1722.42,235.33 1710.21,236.34 1700.00,237.09
             1700.00,237.09 1641.00,238.00 1641.00,238.00
             1641.00,238.00 1653.13,189.00 1653.13,189.00
             1653.13,189.00 1670.15,121.00 1670.15,121.00
             1670.15,121.00 1676.37,98.00 1676.37,98.00
             1677.48,93.70 1678.09,89.33 1682.06,86.60
             1685.24,84.40 1694.97,84.01 1699.00,84.00
             1732.10,83.95 1765.05,80.92 1798.00,85.58
             1808.01,86.99 1821.11,87.98 1830.00,92.90
             1844.25,100.79 1850.82,121.56 1851.00,137.00
             1851.00,137.00 1849.83,169.00 1849.83,169.00
             1849.34,173.93 1847.21,184.68 1848.43,188.98
             1850.34,195.68 1861.86,195.01 1866.85,192.35
             1870.18,190.58 1870.08,187.32 1870.58,184.00
             1870.58,184.00 1873.72,161.00 1873.72,161.00
             1873.72,161.00 1880.16,107.00 1880.16,107.00
             1880.16,107.00 1883.00,83.00 1883.00,83.00
             1883.51,77.09 1887.39,61.60 1881.77,58.17
             1879.50,56.78 1875.63,57.00 1873.00,57.00
             1873.00,57.00 1582.00,57.00 1582.00,57.00
             1579.14,57.01 1575.74,56.69 1573.39,58.60
             1569.50,61.77 1565.75,77.55 1569.60,81.40
             1571.99,83.79 1580.57,82.96 1584.00,83.00
             1584.00,83.00 1594.00,83.91 1594.00,83.91
             1594.00,83.91 1610.00,85.00 1610.00,85.00
             1612.92,85.26 1618.24,85.66 1619.94,88.43
             1621.63,91.17 1618.45,100.70 1617.63,104.00
             1617.63,104.00 1606.87,147.00 1606.87,147.00
             1606.87,147.00 1563.87,319.00 1563.87,319.00
             1563.87,319.00 1546.87,386.00 1546.87,386.00
             1545.23,392.58 1542.49,408.15 1537.78,412.47
             1532.28,417.52 1527.52,416.54 1521.00,417.17
             1521.00,417.17 1512.00,418.00 1512.00,418.00
             1512.00,418.00 1503.00,418.00 1503.00,418.00
             1499.01,418.01 1485.18,418.67 1482.42,420.85
             1479.51,423.15 1477.50,431.35 1477.18,435.00
             1476.07,447.42 1489.55,443.09 1497.00,443.00
             1497.00,443.00 1609.00,443.00 1609.00,443.00
             1609.00,443.00 1624.00,444.00 1624.00,444.00
             1624.00,444.00 1654.00,444.00 1654.00,444.00
             1655.97,443.96 1658.05,444.00 1659.81,442.98
             1665.54,439.68 1667.88,424.44 1664.40,420.31
             1662.13,417.62 1658.18,418.01 1655.00,418.00
             1655.00,418.00 1615.00,416.84 1615.00,416.84
             1610.79,416.38 1602.28,415.19 1599.91,411.61
             1597.75,408.94 1599.41,403.96 1599.91,401.00
             1599.91,401.00 1607.13,373.00 1607.13,373.00
             1607.13,373.00 1625.37,301.00 1625.37,301.00
             1625.37,301.00 1634.00,264.00 1634.00,264.00 Z
           M 614.00,419.00
           C 621.37,438.97 641.43,449.76 662.00,450.00
             673.61,450.13 679.98,450.16 690.00,443.23
             706.77,431.62 715.08,411.52 721.69,393.00
             724.83,384.22 728.09,375.40 728.83,366.00
             729.38,358.99 726.27,358.06 720.00,357.75
             714.00,357.45 709.11,357.72 706.76,364.02
             706.76,364.02 703.28,376.00 703.28,376.00
             699.38,388.96 692.12,412.12 683.38,421.91
             676.36,429.78 664.82,432.88 657.85,422.96
             654.85,418.68 653.83,409.22 654.04,404.00
             654.04,404.00 666.12,350.00 666.12,350.00
             666.12,350.00 690.63,247.00 690.63,247.00
             690.63,247.00 695.42,227.00 695.42,227.00
             695.42,227.00 697.79,216.00 697.79,216.00
             698.24,208.18 692.20,201.91 685.00,199.93
             682.64,199.28 680.44,199.00 678.00,199.18
             673.74,199.51 669.77,200.82 666.00,202.79
             653.63,209.22 652.15,219.81 648.85,232.00
             648.85,232.00 640.88,262.00 640.88,262.00
             640.88,262.00 619.37,349.00 619.37,349.00
             617.22,357.60 610.79,385.90 607.48,392.00
             598.95,407.74 577.98,425.30 560.00,428.54
             548.38,430.63 534.95,427.52 527.39,418.00
             521.32,410.37 518.27,392.56 519.17,383.00
             522.73,345.01 533.32,322.05 545.00,287.00
             549.42,273.73 558.48,250.35 557.96,237.00
             556.59,202.13 520.37,185.79 490.00,195.75
             468.35,202.85 453.09,221.32 443.25,241.00
             438.22,251.06 432.96,261.18 429.72,272.00
             427.31,280.03 426.59,285.81 437.00,286.00
             439.80,286.05 444.38,286.25 446.79,284.83
             450.96,282.36 454.46,267.30 456.60,262.00
             462.38,247.69 471.41,231.12 484.00,221.76
             490.40,217.00 507.44,209.21 512.98,219.11
             514.30,221.47 514.03,226.25 514.00,229.00
             513.87,240.06 506.61,262.21 502.58,273.00
             492.91,298.84 475.32,344.12 475.00,371.00
             475.00,371.00 475.00,387.00 475.00,387.00
             475.03,409.06 486.46,432.39 507.00,442.11
             514.43,445.63 522.90,447.92 531.00,449.25
             543.49,451.29 557.70,450.27 570.00,447.35
             579.83,445.01 593.16,435.96 601.00,429.54
             606.48,425.05 607.36,422.88 614.00,419.00 Z
           M 2042.00,194.21
           C 2033.98,195.64 2024.67,197.45 2017.00,200.08
             1972.96,215.18 1933.15,255.00 1916.00,298.00
             1910.50,311.78 1905.18,330.13 1905.00,345.00
             1904.88,355.35 1904.53,365.79 1906.46,376.00
             1911.80,404.31 1931.23,431.04 1958.00,442.57
             1971.96,448.59 1983.16,449.57 1998.00,450.68
             1998.00,450.68 2007.00,450.04 2007.00,450.04
             2030.43,449.02 2047.48,443.58 2068.00,432.30
             2102.45,413.38 2136.11,375.60 2148.65,338.00
             2155.13,318.56 2156.23,305.21 2156.00,285.00
             2155.90,276.59 2153.33,264.01 2150.67,256.00
             2146.62,243.82 2139.59,228.51 2130.70,219.17
             2118.42,206.26 2090.92,194.03 2073.00,194.21
             2073.00,194.21 2042.00,194.21 2042.00,194.21 Z
           M 2318.00,194.21
           C 2256.60,203.70 2205.14,253.51 2187.02,312.00
             2175.12,350.44 2178.62,394.31 2208.00,424.00
             2214.96,431.03 2221.09,436.17 2230.00,440.63
             2245.29,448.30 2257.41,449.44 2274.00,450.68
             2274.00,450.68 2283.00,450.04 2283.00,450.04
             2331.64,447.92 2372.98,419.20 2401.63,381.00
             2410.15,369.63 2417.55,357.32 2422.58,344.00
             2430.95,321.82 2432.27,307.32 2432.00,284.00
             2431.76,264.21 2420.13,231.87 2405.91,218.17
             2393.04,205.77 2367.02,194.03 2349.00,194.21
             2349.00,194.21 2318.00,194.21 2318.00,194.21 Z
           M 2050.00,214.29
           C 2058.43,213.49 2068.98,213.84 2077.00,216.70
             2097.84,224.12 2105.97,244.40 2106.00,265.00
             2106.04,289.12 2102.85,305.87 2096.42,329.00
             2087.59,360.77 2079.28,385.03 2054.00,408.07
             2046.99,414.46 2039.76,419.80 2031.00,423.57
             2021.47,427.68 2016.15,428.56 2006.00,429.71
             2001.53,430.22 2000.22,429.66 1996.00,429.15
             1969.49,425.98 1954.31,407.31 1954.00,381.00
             1953.82,365.43 1956.56,351.19 1959.60,336.00
             1966.73,300.37 1976.58,265.51 2003.00,239.00
             2017.27,224.69 2030.08,217.59 2050.00,214.29 Z
           M 2326.00,214.29
           C 2335.13,213.42 2346.47,213.88 2355.00,217.46
             2373.01,225.04 2381.78,243.24 2382.00,262.00
             2382.34,291.43 2378.13,310.96 2369.72,339.00
             2363.06,361.19 2356.98,377.73 2341.92,396.00
             2329.63,410.91 2309.86,426.47 2290.00,428.83
             2280.68,429.94 2273.26,430.35 2264.00,427.84
             2241.27,421.69 2230.27,402.53 2230.00,380.00
             2229.83,365.12 2233.35,346.60 2236.58,332.00
             2236.58,332.00 2245.35,297.00 2245.35,297.00
             2258.31,258.14 2282.85,221.43 2326.00,214.29 Z
           M 2589.00,214.29
           C 2611.94,212.11 2624.13,223.70 2632.85,244.00
             2634.65,248.20 2637.89,255.50 2637.61,260.00
             2637.61,260.00 2633.37,278.00 2633.37,278.00
             2633.37,278.00 2624.87,312.00 2624.87,312.00
             2624.87,312.00 2613.37,358.00 2613.37,358.00
             2613.37,358.00 2606.60,383.00 2606.60,383.00
             2603.99,388.44 2598.27,394.42 2594.28,399.00
             2580.37,414.99 2563.64,427.63 2542.00,429.70
             2528.94,430.95 2514.34,422.99 2508.90,411.00
             2505.50,403.50 2505.04,395.08 2504.74,387.00
             2504.02,367.17 2509.30,343.29 2514.13,324.00
             2520.15,299.89 2528.08,272.23 2541.00,251.00
             2551.89,233.11 2567.74,217.82 2589.00,214.29 Z
           M 1196.00,252.00
           C 1196.00,252.00 1196.00,286.00 1196.00,286.00
             1196.00,286.00 1425.00,286.00 1425.00,286.00
             1425.00,286.00 1432.98,284.40 1432.98,284.40
             1432.98,284.40 1434.00,277.00 1434.00,277.00
             1434.00,277.00 1434.00,252.00 1434.00,252.00
             1434.00,252.00 1196.00,252.00 1196.00,252.00 Z" />
</svg>
