<?xml version="1.0" encoding="UTF-8" standalone="no"?>
<!DOCTYPE svg PUBLIC "-//W3C//DTD SVG 20010904//EN"
              "http://www.w3.org/TR/2001/REC-SVG-20010904/DTD/svg10.dtd">

<svg xmlns="http://www.w3.org/2000/svg"
     viewBox="0 0 650 582">
  <path id="靸択範囲"
        fill="#FAFAFA" 
        d="M 331.00,31.00
           C 337.16,34.58 342.99,31.52 344.83,35.30
             347.82,41.42 332.65,40.00 330.00,40.00
             335.52,42.82 342.66,41.89 344.97,46.14
             345.98,48.09 345.00,56.09 344.97,59.00
             344.97,59.00 344.00,134.00 344.00,134.00
             344.00,134.00 345.00,151.00 345.00,151.00
             345.00,151.00 345.00,198.00 345.00,198.00
             344.99,201.34 345.56,205.79 341.85,207.14
             338.28,208.96 328.42,207.06 324.00,207.14
             324.00,207.14 265.00,207.14 265.00,207.14
             265.00,207.14 221.00,210.21 221.00,210.21
             221.00,210.21 213.00,211.91 213.00,211.91
             213.00,211.91 165.00,219.00 165.00,219.00
             165.00,219.00 149.00,223.12 149.00,223.12
             149.00,223.12 127.00,228.43 127.00,228.43
             127.00,228.43 115.00,232.71 115.00,232.71
             94.05,239.43 69.25,249.22 51.00,261.41
             34.50,272.43 25.22,278.26 13.29,295.00
             11.11,298.06 9.14,300.57 7.49,304.00
             5.21,308.75 4.57,312.13 3.16,316.99
             1.48,322.76 0.12,321.03 0.00,328.00
             -0.18,339.49 0.69,335.54 2.87,342.04
             2.87,342.04 6.02,352.00 6.02,352.00
             10.18,361.93 19.03,373.66 27.00,380.83
             27.00,380.83 42.00,392.83 42.00,392.83
             42.00,392.83 49.91,398.26 49.91,398.26
             49.91,398.26 72.91,428.00 72.91,428.00
             72.91,428.00 81.94,441.09 81.94,441.09
             81.94,441.09 101.15,472.00 101.15,472.00
             116.05,492.31 135.13,510.47 157.00,523.13
             167.19,529.02 187.83,538.48 199.00,541.98
             199.00,541.98 222.84,548.43 222.84,548.43
             229.98,552.56 217.83,564.11 221.06,569.58
             222.68,572.32 229.95,573.65 233.00,574.35
             233.00,574.35 258.00,578.34 258.00,578.34
             265.17,579.87 260.92,581.98 272.00,582.00
             272.00,582.00 319.00,582.00 319.00,582.00
             330.81,581.98 325.77,579.25 335.00,578.05
             335.00,578.05 359.00,573.88 359.00,573.88
             361.80,573.23 366.56,572.46 368.85,570.91
             375.20,566.64 369.09,560.06 369.92,556.09
             370.59,552.88 378.15,547.27 381.00,545.64
             381.00,545.64 395.00,540.91 395.00,540.91
             408.64,535.52 422.46,530.24 435.00,522.53
             455.96,509.65 474.30,492.84 488.85,473.00
             488.85,473.00 508.43,442.00 508.43,442.00
             519.52,426.02 531.82,407.33 545.08,393.17
             545.08,393.17 561.99,378.96 561.99,378.96
             575.93,365.30 586.02,347.98 585.26,328.00
             584.30,302.96 568.20,284.94 549.17,270.50
             512.89,242.97 468.51,230.49 425.00,219.66
             425.00,219.66 392.00,214.13 392.00,214.13
             388.52,213.65 378.70,212.87 376.31,211.07
             373.54,208.97 373.87,203.36 373.42,200.00
             373.42,200.00 370.96,165.00 370.96,165.00
             370.96,165.00 370.96,153.00 370.96,153.00
             370.96,153.00 370.00,141.00 370.00,141.00
             370.00,141.00 370.00,99.00 370.00,99.00
             370.00,99.00 369.00,83.00 369.00,83.00
             369.00,83.00 369.00,65.00 369.00,65.00
             369.03,62.79 369.29,50.87 372.85,51.62
             374.71,52.02 375.45,55.46 375.87,57.00
             375.87,57.00 379.94,74.00 379.94,74.00
             379.94,74.00 379.94,84.00 379.94,84.00
             380.88,91.10 381.99,91.04 382.00,100.00
             382.00,100.00 383.00,122.00 383.00,122.00
             383.00,122.00 383.00,145.00 383.00,145.00
             383.00,146.69 382.87,150.22 383.59,151.67
             384.90,154.29 387.35,153.27 388.43,149.94
             390.03,145.05 390.01,135.30 389.92,130.00
             389.92,130.00 389.92,124.00 389.92,124.00
             389.67,122.22 388.53,117.20 391.19,116.62
             392.35,116.37 393.15,117.36 393.71,118.20
             394.91,120.05 397.32,130.45 402.05,136.98
             403.37,138.80 406.69,142.81 409.16,140.21
             411.66,137.55 406.90,133.44 404.70,128.00
             404.70,128.00 394.42,98.00 394.42,98.00
             392.74,91.83 391.46,87.37 398.00,84.00
             397.50,76.97 395.73,77.24 394.85,72.00
             394.09,68.70 394.90,65.33 394.85,62.00
             395.05,59.63 394.63,55.44 396.60,53.96
             398.82,51.88 408.86,53.78 412.00,53.96
             412.00,53.96 443.00,58.19 443.00,58.19
             443.00,58.19 457.00,60.73 457.00,60.73
             457.00,60.73 509.00,67.28 509.00,67.28
             509.00,67.28 532.00,71.58 532.00,71.58
             532.00,71.58 568.00,76.28 568.00,76.28
             568.00,76.28 589.00,79.81 589.00,79.81
             589.00,79.81 617.00,83.16 617.00,83.16
             617.00,83.16 634.00,84.96 634.00,84.96
             637.74,85.11 641.73,84.99 644.74,82.49
             650.21,77.96 650.98,73.71 647.12,68.02
             645.83,66.11 645.07,65.00 642.89,64.01
             637.66,61.62 627.57,62.42 622.00,61.83
             622.00,61.83 613.00,60.17 613.00,60.17
             613.00,60.17 581.00,57.91 581.00,57.91
             581.00,57.91 538.00,54.17 538.00,54.17
             538.00,54.17 510.00,51.82 510.00,51.82
             510.00,51.82 502.00,50.18 502.00,50.18
             502.00,50.18 473.00,47.91 473.00,47.91
             473.00,47.91 464.00,47.01 464.00,47.01
             464.00,47.01 415.00,44.00 415.00,44.00
             411.82,43.96 397.34,43.16 395.60,41.40
             394.48,40.27 394.10,38.57 394.37,37.04
             395.34,31.58 401.82,32.01 406.00,32.00
             406.00,32.00 431.00,32.00 431.00,32.00
             431.00,32.00 445.00,31.00 445.00,31.00
             445.00,31.00 462.00,31.00 462.00,31.00
             462.00,31.00 479.00,30.00 479.00,30.00
             479.00,30.00 496.00,30.00 496.00,30.00
             496.00,30.00 511.00,29.00 511.00,29.00
             511.00,29.00 532.00,29.00 532.00,29.00
             532.00,29.00 547.00,28.00 547.00,28.00
             547.00,28.00 572.00,28.00 572.00,28.00
             572.00,28.00 589.00,27.00 589.00,27.00
             589.00,27.00 604.00,27.00 604.00,27.00
             604.00,27.00 623.00,26.00 623.00,26.00
             627.73,25.99 636.92,25.49 640.82,22.91
             647.17,18.79 645.04,7.94 640.82,4.85
             636.00,1.40 626.53,3.66 621.00,3.97
             621.00,3.97 591.00,6.17 591.00,6.17
             591.00,6.17 571.00,7.99 571.00,7.99
             571.00,7.99 559.00,8.91 559.00,8.91
             559.00,8.91 539.00,10.17 539.00,10.17
             539.00,10.17 529.00,12.00 529.00,12.00
             529.00,12.00 521.00,12.00 521.00,12.00
             521.00,12.00 511.00,13.00 511.00,13.00
             511.00,13.00 481.00,14.91 481.00,14.91
             481.00,14.91 438.00,18.17 438.00,18.17
             438.00,18.17 418.00,20.18 418.00,20.18
             411.38,21.00 404.75,22.98 398.00,22.85
             391.34,22.74 389.88,16.15 385.90,12.05
             381.39,7.42 373.45,4.57 367.00,4.58
             357.76,4.58 352.56,8.54 349.37,17.00
             348.43,19.51 347.01,25.86 345.42,27.40
             343.54,29.22 334.17,30.20 331.00,31.00 Z" />
</svg>
