<?xml version="1.0" encoding="UTF-8"?>
<svg xmlns="http://www.w3.org/2000/svg" xmlns:xlink="http://www.w3.org/1999/xlink" width="99pt" height="37pt" viewBox="0 0 99 37" version="1.1">
<g id="surface1">
<path style="fill:none;stroke-width:1;stroke-linecap:butt;stroke-linejoin:miter;stroke:rgb(0%,0%,0%);stroke-opacity:1;stroke-miterlimit:4;" d="M 757.010248 648.996277 C 757.010248 648.996277 779.950011 648.00207 779.950011 648.00207 C 779.950011 648.00207 813.023358 644.025241 814.02558 644.025241 C 815.027803 644.025241 811.018912 668.990885 811.018912 668.990885 C 811.018912 668.990885 801.998909 700.032239 801.998909 700.032239 C 801.998909 700.032239 794.98335 729.968918 794.98335 729.968918 C 794.98335 729.968918 788.970014 746.980906 788.970014 746.980906 C 788.970014 746.980906 777.945565 761.010272 777.945565 761.010272 C 777.945565 761.010272 786.965569 769.958136 786.965569 769.958136 C 786.965569 769.958136 765.028029 852.035452 765.028029 852.035452 C 765.028029 852.035452 753.001358 868.053233 753.001358 868.053233 C 753.001358 868.053233 763.023584 873.024268 763.023584 873.024268 C 763.023584 873.024268 767.032475 890.036256 767.032475 890.036256 C 767.032475 890.036256 778.947788 895.007291 778.947788 895.007291 C 778.947788 895.007291 793.981128 896.001498 793.981128 896.001498 C 793.981128 896.001498 804.003354 883.960546 804.003354 883.960546 C 804.003354 883.960546 814.02558 864.960144 813.023358 864.960144 C 812.021135 864.960144 823.045584 831.046636 823.045584 831.046636 " transform="matrix(0.0350783,0,0,0.0353611,0.0000671102,0)"/>
</g>
</svg>
