<?xml version="1.0" encoding="UTF-8"?>
<svg xmlns="http://www.w3.org/2000/svg" xmlns:xlink="http://www.w3.org/1999/xlink" width="99pt" height="37pt" viewBox="0 0 99 37" version="1.1">
<g id="surface1">
<path style="fill:none;stroke-width:1;stroke-linecap:butt;stroke-linejoin:miter;stroke:rgb(0%,0%,0%);stroke-opacity:1;stroke-miterlimit:4;" d="M 1593.977504 539.964902 C 1593.977504 539.964902 1573.042187 520.964501 1573.042187 520.964501 C 1573.042187 520.964501 1555.002179 501.964099 1555.002179 501.964099 C 1555.002179 501.964099 1543.97773 491.027821 1543.97773 491.027821 C 1543.97773 491.027821 1522.040191 491.027821 1522.040191 491.027821 C 1522.040191 491.027821 1497.986847 496.993064 1497.986847 496.993064 C 1497.986847 496.993064 1470.035972 512.016637 1470.035972 512.016637 C 1470.035972 512.016637 1459.011523 527.04021 1459.011523 527.04021 C 1459.011523 527.04021 1445.982629 551.011647 1445.982629 551.011647 C 1445.982629 551.011647 1431.951512 578.959913 1431.951512 578.959913 C 1431.951512 578.959913 1424.045089 605.030231 1424.045089 605.030231 C 1424.045089 605.030231 1420.036198 625.02484 1420.036198 625.02484 C 1420.036198 625.02484 1419.033976 650.984691 1419.033976 650.984691 C 1419.033976 650.984691 1422.040644 674.956128 1422.040644 674.956128 C 1422.040644 674.956128 1431.951512 693.956529 1431.951512 693.956529 C 1431.951512 693.956529 1448.989297 705.003274 1448.989297 705.997482 C 1448.989297 706.991689 1475.047085 714.945345 1475.047085 714.945345 C 1475.047085 714.945345 1494.98018 708.980103 1494.98018 708.980103 C 1494.98018 708.980103 1514.02241 695.944943 1514.02241 695.944943 C 1514.02241 695.944943 1537.964395 678.049216 1537.964395 678.049216 C 1537.964395 678.049216 1556.004402 664.01985 1556.004402 664.01985 " transform="matrix(0.0350783,0,0,0.0353611,0.0000671102,0)"/>
</g>
</svg>
