<?xml version="1.0" encoding="UTF-8"?>
<svg xmlns="http://www.w3.org/2000/svg" xmlns:xlink="http://www.w3.org/1999/xlink" width="99pt" height="37pt" viewBox="0 0 99 37" version="1.1">
<g id="surface1">
<path style="fill:none;stroke-width:1;stroke-linecap:butt;stroke-linejoin:miter;stroke:rgb(0%,0%,0%);stroke-opacity:1;stroke-miterlimit:4;" d="M 1552.997734 362.001838 C 1552.997734 362.001838 1593.977504 362.001838 1593.977504 362.001838 C 1593.977504 362.001838 1636.961719 353.053975 1636.961719 353.053975 C 1636.961719 353.053975 1629.946161 381.00224 1629.946161 381.996447 C 1629.946161 382.990654 1559.01107 675.950335 1559.01107 677.055009 C 1559.01107 678.049216 1559.01107 698.043825 1559.01107 697.049618 C 1559.01107 695.944943 1572.039964 706.991689 1572.039964 706.991689 C 1572.039964 706.991689 1591.973059 714.945345 1592.975281 714.945345 C 1593.977504 714.945345 1613.019734 704.009067 1613.019734 704.009067 C 1613.019734 704.009067 1628.053073 678.049216 1628.053073 678.049216 C 1628.053073 678.049216 1649.990613 610.995473 1649.990613 610.995473 " transform="matrix(0.0350783,0,0,0.0353611,0.0000671102,0)"/>
</g>
</svg>
