<?xml version="1.0" encoding="UTF-8"?>
<svg xmlns="http://www.w3.org/2000/svg" xmlns:xlink="http://www.w3.org/1999/xlink" width="100pt" height="37pt" viewBox="0 0 100 37" version="1.1">
<g id="surface1">
<path style=" stroke:none;fill-rule:nonzero;fill:rgb(0%,0%,0%);fill-opacity:1;" d="M 22.925781 12.269531 C 23.40625 12.367188 24.078125 12.539062 24.265625 13.046875 C 24.378906 13.347656 24.238281 13.664062 24.234375 13.96875 C 24.230469 14.453125 24.355469 14.929688 24.804688 15.191406 C 24.945312 15.277344 25.101562 15.324219 25.261719 15.359375 C 26.203125 15.550781 26.675781 14.839844 26.984375 14.074219 C 27.058594 13.890625 27.125 13.699219 27.175781 13.507812 C 27.199219 13.425781 27.226562 13.324219 27.15625 13.253906 C 27.058594 13.164062 26.796875 13.183594 26.710938 13.28125 C 26.652344 13.347656 26.597656 13.617188 26.5625 13.71875 C 26.457031 14.035156 26.285156 14.46875 26.035156 14.695312 C 25.632812 15.058594 25.238281 14.851562 25.265625 14.320312 C 25.265625 14.320312 25.40625 13.261719 25.40625 13.261719 C 25.402344 12.523438 24.875 12.183594 24.234375 11.988281 C 23.984375 11.910156 23.871094 11.859375 23.597656 11.847656 C 23.753906 11.644531 23.980469 11.492188 24.164062 11.3125 C 24.59375 10.902344 25.164062 10.273438 25.6875 10 C 26.035156 9.820312 26.316406 9.710938 26.644531 9.972656 C 26.3125 10.039062 26.066406 10.152344 25.898438 10.46875 C 25.710938 10.808594 25.792969 11.253906 26.21875 11.347656 C 27.347656 11.585938 27.574219 9.886719 26.894531 9.445312 C 26.5 9.191406 25.882812 9.363281 25.511719 9.578125 C 24.710938 10.042969 23.890625 11.195312 23.136719 11.5625 C 23.160156 11.285156 23.300781 10.792969 23.371094 10.503906 C 23.371094 10.503906 23.804688 8.769531 23.804688 8.769531 C 23.804688 8.769531 24.292969 6.789062 24.292969 6.789062 C 24.328125 6.65625 24.46875 6.125 24.425781 6.023438 C 24.363281 5.878906 24.003906 5.964844 23.882812 5.972656 C 23.882812 5.972656 22.960938 6.050781 22.960938 6.050781 C 22.960938 6.050781 22.605469 6.050781 22.605469 6.050781 C 22.402344 6.082031 22.25 6.066406 22.179688 6.292969 C 22.0625 6.667969 22.199219 6.664062 22.5 6.6875 C 22.5 6.6875 22.820312 6.722656 22.820312 6.722656 C 22.988281 6.746094 23.136719 6.796875 23.117188 7 C 23.117188 7 22.921875 7.78125 22.921875 7.78125 C 22.921875 7.78125 22.582031 9.125 22.582031 9.125 C 22.582031 9.125 21.519531 13.402344 21.519531 13.402344 C 21.519531 13.402344 21.253906 14.535156 21.253906 14.535156 C 21.226562 14.644531 21.160156 14.929688 21.167969 15.027344 C 21.1875 15.285156 21.460938 15.394531 21.683594 15.378906 C 22.0625 15.351562 22.234375 15.082031 22.316406 14.746094 C 22.316406 14.746094 22.707031 13.117188 22.707031 13.117188 C 22.707031 13.117188 22.925781 12.269531 22.925781 12.269531 Z M 17.503906 14.640625 C 17.722656 15.324219 18.738281 15.582031 19.3125 15.203125 C 19.652344 14.972656 19.835938 14.546875 19.984375 14.179688 C 20.058594 13.992188 20.152344 13.742188 20.1875 13.542969 C 20.199219 13.476562 20.21875 13.335938 20.1875 13.277344 C 20.136719 13.203125 19.992188 13.191406 19.914062 13.203125 C 19.6875 13.230469 19.6875 13.359375 19.628906 13.542969 C 19.539062 13.832031 19.347656 14.464844 19.160156 14.671875 C 18.96875 14.886719 18.664062 14.992188 18.507812 14.671875 C 18.453125 14.566406 18.460938 14.40625 18.460938 14.285156 C 18.464844 14 18.640625 13.390625 18.710938 13.082031 C 18.710938 13.082031 19.296875 10.644531 19.296875 10.644531 C 19.296875 10.644531 19.394531 10.21875 19.394531 10.21875 C 19.460938 9.957031 19.574219 9.59375 19.203125 9.484375 C 19.148438 9.476562 19.050781 9.476562 18.992188 9.484375 C 18.394531 9.503906 18.316406 10.222656 18.199219 10.679688 C 18.199219 10.679688 17.765625 12.410156 17.765625 12.410156 C 17.765625 12.410156 17.574219 13.191406 17.574219 13.191406 C 17.449219 13.628906 17.453125 13.921875 17.140625 14.285156 C 16.8125 14.664062 16.242188 15.023438 15.730469 14.820312 C 15.578125 14.757812 15.480469 14.675781 15.398438 14.535156 C 15.253906 14.285156 15.269531 13.996094 15.273438 13.71875 C 15.28125 12.800781 16.050781 11.285156 16.148438 10.609375 C 16.230469 10.042969 15.953125 9.519531 15.378906 9.367188 C 15.253906 9.335938 15.117188 9.332031 14.988281 9.324219 C 14.191406 9.296875 13.660156 9.988281 13.363281 10.644531 C 13.292969 10.800781 13.160156 11.082031 13.128906 11.246094 C 13.113281 11.328125 13.101562 11.425781 13.191406 11.472656 C 13.308594 11.527344 13.550781 11.503906 13.621094 11.382812 C 13.621094 11.382812 13.769531 10.960938 13.769531 10.960938 C 13.929688 10.5625 14.242188 10.019531 14.667969 9.863281 C 14.972656 9.753906 15.136719 9.867188 15.128906 10.183594 C 15.125 10.476562 14.945312 10.957031 14.847656 11.246094 C 14.847656 11.246094 14.609375 11.882812 14.609375 11.882812 C 14.289062 12.800781 13.796875 14.421875 14.8125 15.09375 C 14.941406 15.183594 15.085938 15.242188 15.234375 15.285156 C 15.484375 15.359375 15.652344 15.386719 15.910156 15.382812 C 16.082031 15.378906 16.382812 15.339844 16.546875 15.285156 C 16.917969 15.160156 17.191406 14.859375 17.503906 14.640625 Z M 2.585938 29.949219 C 2.769531 29.902344 2.945312 29.835938 3.078125 29.699219 C 3.472656 29.304688 3.40625 28.585938 2.941406 28.273438 C 2.671875 28.09375 2.316406 28.082031 2.019531 28.199219 C 1.300781 28.488281 1.410156 29.421875 1.699219 29.984375 C 1.785156 30.152344 1.929688 30.347656 2.054688 30.480469 C 2.585938 31.035156 3.1875 31.203125 3.933594 31.125 C 4.308594 31.082031 4.554688 31.023438 4.890625 30.832031 C 5.148438 30.6875 5.359375 30.484375 5.558594 30.269531 C 5.851562 29.957031 6.023438 29.617188 6.210938 29.242188 C 6.8125 28.035156 7.003906 26.445312 7.164062 25.105469 C 7.164062 25.105469 7.578125 21.746094 7.578125 21.746094 C 7.578125 21.746094 7.859375 18.917969 7.859375 18.917969 C 7.859375 18.917969 7.941406 17.75 7.941406 17.75 C 7.941406 17.75 7.972656 17.503906 7.972656 17.503906 C 7.972656 17.503906 7.972656 17.148438 7.972656 17.148438 C 7.972656 17.148438 8.007812 16.796875 8.007812 16.796875 C 8.007812 16.796875 8.074219 15.839844 8.074219 15.839844 C 8.074219 15.839844 8.226562 14.179688 8.226562 14.179688 C 8.320312 13.308594 8.441406 11.960938 8.957031 11.246094 C 9.316406 10.746094 9.875 10.667969 10.417969 10.886719 C 10.640625 10.976562 10.769531 11.046875 10.914062 11.246094 C 10.640625 11.34375 10.433594 11.441406 10.289062 11.703125 C 9.855469 12.488281 10.597656 13.332031 11.445312 13.027344 C 12.082031 12.800781 12.105469 12.125 11.949219 11.5625 C 11.710938 10.714844 10.914062 10.089844 10.027344 10.078125 C 9.65625 10.074219 9.46875 10.070312 9.105469 10.183594 C 8.785156 10.289062 8.585938 10.425781 8.328125 10.636719 C 8.089844 10.828125 7.777344 11.136719 7.609375 11.386719 C 7.222656 11.957031 6.863281 13.105469 6.710938 13.789062 C 6.710938 13.789062 6.550781 14.710938 6.550781 14.710938 C 6.550781 14.710938 6.160156 17.75 6.160156 17.75 C 6.160156 17.75 5.605469 23.195312 5.605469 23.195312 C 5.605469 23.195312 5.425781 25.425781 5.425781 25.425781 C 5.425781 25.425781 5.34375 26.625 5.34375 26.625 C 5.34375 26.625 5.082031 28.640625 5.082031 28.640625 C 4.996094 29.066406 4.875 29.53125 4.613281 29.878906 C 4.222656 30.40625 3.648438 30.613281 3.046875 30.3125 C 2.835938 30.207031 2.730469 30.144531 2.585938 29.949219 Z M 91.914062 13.578125 C 92.398438 12.902344 93.277344 12.65625 94.074219 12.660156 C 94.515625 12.660156 95.054688 12.726562 95.382812 13.050781 C 95.78125 13.453125 95.78125 14.042969 95.773438 14.570312 C 95.769531 14.949219 95.699219 15.328125 95.515625 15.664062 C 95.515625 15.664062 94.375 17.183594 94.375 17.183594 C 93.921875 17.941406 93.585938 19.417969 93.578125 20.296875 C 93.578125 20.296875 93.578125 21.214844 93.578125 21.214844 C 93.578125 21.296875 93.578125 21.417969 93.625 21.484375 C 93.679688 21.566406 93.773438 21.566406 93.859375 21.570312 C 94.25 21.582031 94.320312 21.527344 94.320312 21.144531 C 94.324219 19.933594 94.367188 19.203125 95.046875 18.140625 C 95.351562 17.660156 95.726562 17.28125 96.164062 16.917969 C 96.523438 16.621094 96.917969 16.359375 97.199219 15.984375 C 97.488281 15.597656 97.632812 15.082031 97.652344 14.605469 C 97.679688 13.875 97.164062 13.007812 96.589844 12.578125 C 96.367188 12.417969 96.199219 12.355469 95.953125 12.257812 C 95.464844 12.0625 94.945312 12.007812 94.429688 11.984375 C 94.429688 11.984375 94.074219 11.953125 94.074219 11.953125 C 94.074219 11.953125 93.753906 11.992188 93.753906 11.992188 C 93.753906 11.992188 93.402344 11.992188 93.402344 11.992188 C 92.691406 12.089844 91.878906 12.5 91.382812 13.011719 C 91.253906 13.144531 91.125 13.3125 91.039062 13.472656 C 90.710938 14.082031 90.566406 15.160156 91.34375 15.492188 C 91.464844 15.542969 91.605469 15.566406 91.734375 15.578125 C 91.847656 15.582031 92.054688 15.554688 92.160156 15.519531 C 93.101562 15.203125 93.015625 13.691406 91.914062 13.578125 Z M 55.84375 17.820312 C 55.84375 17.820312 55.382812 17.351562 55.382812 17.351562 C 54.90625 16.980469 54.496094 16.96875 53.929688 16.972656 C 53.636719 16.976562 53.386719 17.046875 53.113281 17.136719 C 52.382812 17.382812 51.980469 17.609375 51.414062 18.136719 C 50.214844 19.246094 49.410156 20.875 49.429688 22.523438 C 49.433594 23.007812 49.570312 23.761719 49.792969 24.1875 C 50.234375 25.019531 51.117188 25.519531 52.050781 25.53125 C 52.640625 25.535156 53.234375 25.328125 53.714844 25 C 53.714844 25 54.53125 24.363281 54.53125 24.363281 C 54.566406 24.523438 54.625 24.6875 54.71875 24.824219 C 55.195312 25.507812 56.371094 25.757812 57.082031 25.324219 C 57.550781 25.039062 57.871094 24.367188 58.066406 23.867188 C 58.1875 23.566406 58.292969 23.230469 58.371094 22.914062 C 58.394531 22.8125 58.453125 22.632812 58.390625 22.539062 C 58.320312 22.4375 58.117188 22.453125 58.003906 22.453125 C 57.9375 22.457031 57.859375 22.453125 57.800781 22.492188 C 57.660156 22.578125 57.589844 22.964844 57.542969 23.125 C 57.414062 23.539062 57.257812 24.078125 57.015625 24.433594 C 56.890625 24.617188 56.710938 24.800781 56.480469 24.835938 C 56.101562 24.894531 55.9375 24.449219 55.914062 24.152344 C 55.894531 23.851562 55.988281 23.589844 56.058594 23.304688 C 56.058594 23.304688 56.386719 21.996094 56.386719 21.996094 C 56.386719 21.996094 58.195312 14.710938 58.195312 14.710938 C 58.195312 14.710938 58.628906 12.90625 58.628906 12.90625 C 58.660156 12.78125 58.78125 12.355469 58.710938 12.253906 C 58.617188 12.113281 58.15625 12.207031 58.003906 12.226562 C 58.003906 12.226562 57.222656 12.273438 57.222656 12.273438 C 57.222656 12.273438 56.445312 12.339844 56.445312 12.339844 C 56.300781 12.347656 55.8125 12.355469 55.707031 12.417969 C 55.535156 12.519531 55.410156 13.0625 55.574219 13.203125 C 55.671875 13.289062 55.988281 13.257812 56.125 13.261719 C 56.339844 13.261719 56.753906 13.277344 56.84375 13.507812 C 56.890625 13.636719 56.835938 13.804688 56.796875 13.933594 C 56.796875 13.933594 56.597656 14.710938 56.597656 14.710938 C 56.597656 14.710938 56.128906 16.621094 56.128906 16.621094 C 56.128906 16.621094 55.84375 17.820312 55.84375 17.820312 Z M 40.429688 19.308594 C 40.429688 19.308594 41.351562 19.308594 41.351562 19.308594 C 41.351562 19.308594 41.917969 19.34375 41.917969 19.34375 C 41.917969 19.34375 42.378906 19.34375 42.378906 19.34375 C 42.617188 19.34375 43.105469 19.398438 43.296875 19.542969 C 43.65625 19.808594 43.5625 20.480469 43.472656 20.863281 C 43.445312 20.972656 43.371094 21.222656 43.378906 21.324219 C 43.410156 21.585938 43.816406 21.570312 43.96875 21.507812 C 44.097656 21.457031 44.132812 21.339844 44.171875 21.214844 C 44.171875 21.214844 44.355469 20.507812 44.355469 20.507812 C 44.355469 20.507812 45.109375 17.433594 45.109375 17.433594 C 45.109375 17.433594 45.3125 16.550781 45.3125 16.550781 C 45.339844 16.390625 45.324219 16.273438 45.140625 16.238281 C 45.003906 16.214844 44.730469 16.234375 44.640625 16.347656 C 44.570312 16.433594 44.488281 16.804688 44.445312 16.9375 C 44.296875 17.390625 44.121094 17.824219 43.722656 18.117188 C 43.410156 18.351562 43.035156 18.390625 42.660156 18.429688 C 42.660156 18.429688 40.640625 18.457031 40.640625 18.457031 C 40.640625 18.457031 41.0625 16.761719 41.0625 16.761719 C 41.0625 16.761719 41.621094 14.570312 41.621094 14.570312 C 41.621094 14.570312 41.835938 13.753906 41.835938 13.753906 C 41.867188 13.640625 41.898438 13.5 41.996094 13.421875 C 42.109375 13.335938 42.378906 13.332031 42.519531 13.332031 C 42.519531 13.332031 42.945312 13.332031 42.945312 13.332031 C 42.945312 13.332031 43.476562 13.296875 43.476562 13.296875 C 44.316406 13.292969 45.15625 13.265625 45.992188 13.386719 C 46.273438 13.425781 46.703125 13.476562 46.949219 13.609375 C 47.402344 13.863281 47.652344 14.53125 47.65625 15.027344 C 47.65625 15.027344 47.617188 16.265625 47.617188 16.265625 C 47.601562 16.40625 47.527344 16.710938 47.578125 16.828125 C 47.648438 17.003906 48 17.007812 48.152344 16.945312 C 48.28125 16.894531 48.300781 16.78125 48.320312 16.65625 C 48.320312 16.65625 48.414062 15.914062 48.414062 15.914062 C 48.414062 15.914062 48.730469 13.296875 48.730469 13.296875 C 48.75 13.125 48.859375 12.585938 48.707031 12.484375 C 48.644531 12.441406 48.515625 12.445312 48.4375 12.445312 C 48.4375 12.445312 38.691406 12.445312 38.691406 12.445312 C 38.589844 12.449219 38.46875 12.4375 38.382812 12.503906 C 38.253906 12.605469 38.136719 13.113281 38.257812 13.238281 C 38.34375 13.328125 38.707031 13.292969 38.835938 13.296875 C 38.835938 13.296875 39.683594 13.367188 39.683594 13.367188 C 39.800781 13.386719 39.925781 13.40625 39.953125 13.546875 C 39.972656 13.648438 39.820312 14.183594 39.785156 14.320312 C 39.785156 14.320312 39.34375 16.089844 39.34375 16.089844 C 39.34375 16.089844 37.875 21.925781 37.875 21.925781 C 37.875 21.925781 37.453125 23.585938 37.453125 23.585938 C 37.40625 23.742188 37.335938 24.105469 37.25 24.21875 C 37.070312 24.464844 36.789062 24.421875 36.53125 24.4375 C 36.53125 24.4375 36.105469 24.46875 36.105469 24.46875 C 36.105469 24.46875 35.859375 24.46875 35.859375 24.46875 C 35.71875 24.472656 35.410156 24.484375 35.316406 24.589844 C 35.210938 24.707031 35.09375 25.144531 35.230469 25.257812 C 35.316406 25.328125 35.46875 25.320312 35.574219 25.320312 C 35.574219 25.320312 40.5 25.320312 40.5 25.320312 C 40.976562 25.320312 41.316406 25.511719 41.445312 25.035156 C 41.445312 25.035156 41.484375 24.789062 41.484375 24.789062 C 41.503906 24.539062 41.40625 24.472656 41.171875 24.46875 C 40.6875 24.460938 40.203125 24.488281 39.71875 24.414062 C 39.566406 24.390625 39.300781 24.363281 39.25 24.1875 C 39.226562 24.097656 39.285156 23.890625 39.308594 23.796875 C 39.308594 23.796875 39.546875 22.84375 39.546875 22.84375 C 39.546875 22.84375 40.140625 20.507812 40.140625 20.507812 C 40.140625 20.507812 40.429688 19.308594 40.429688 19.308594 Z M 60.484375 24.609375 C 60.769531 24.464844 60.917969 24.445312 61.148438 24.1875 C 61.261719 24.0625 61.367188 23.886719 61.414062 23.726562 C 61.496094 23.429688 61.453125 22.972656 61.1875 22.777344 C 61.082031 22.699219 60.964844 22.667969 60.835938 22.648438 C 60.34375 22.566406 59.867188 22.808594 59.613281 23.230469 C 59.507812 23.414062 59.429688 23.691406 59.421875 23.902344 C 59.402344 24.386719 59.683594 25.003906 60.09375 25.269531 C 60.566406 25.574219 61.417969 25.605469 61.9375 25.402344 C 62.507812 25.179688 62.722656 24.78125 63.105469 24.363281 C 63.203125 24.671875 63.546875 25.011719 63.8125 25.1875 C 64.117188 25.390625 64.507812 25.527344 64.878906 25.53125 C 65.332031 25.535156 65.601562 25.542969 66.046875 25.398438 C 66.773438 25.160156 67.476562 24.480469 67.859375 23.832031 C 68.015625 23.5625 68.15625 23.285156 68.253906 22.984375 C 68.277344 22.902344 68.335938 22.679688 68.324219 22.601562 C 68.289062 22.386719 67.75 22.417969 67.640625 22.542969 C 67.640625 22.542969 67.304688 23.339844 67.304688 23.339844 C 66.90625 24.066406 66.171875 24.789062 65.300781 24.851562 C 64.730469 24.894531 64.289062 24.46875 64.273438 23.902344 C 64.265625 23.566406 64.398438 23.007812 64.472656 22.667969 C 64.472656 22.667969 65.023438 20.4375 65.023438 20.4375 C 65.160156 19.917969 65.351562 19.007812 65.597656 18.566406 C 65.835938 18.128906 66.261719 17.6875 66.789062 17.679688 C 67.152344 17.675781 67.316406 17.691406 67.605469 17.929688 C 67.332031 18.003906 67.054688 18.160156 66.882812 18.386719 C 66.542969 18.84375 66.519531 19.59375 67.144531 19.816406 C 67.726562 20.027344 68.332031 19.671875 68.566406 19.128906 C 68.679688 18.871094 68.671875 18.695312 68.667969 18.421875 C 68.660156 17.597656 67.910156 16.984375 67.109375 16.972656 C 66.589844 16.96875 66.242188 16.996094 65.796875 17.308594 C 65.53125 17.496094 65.175781 17.832031 65.054688 18.140625 C 65.054688 18.140625 64.984375 18.140625 64.984375 18.140625 C 64.875 17.796875 64.566406 17.53125 64.273438 17.339844 C 63.476562 16.8125 62.355469 16.863281 61.546875 17.339844 C 61.089844 17.617188 60.71875 18.027344 60.414062 18.457031 C 60.1875 18.777344 59.972656 19.113281 59.847656 19.484375 C 59.785156 19.65625 59.65625 19.96875 59.917969 20.042969 C 59.96875 20.050781 60.105469 20.050781 60.164062 20.042969 C 60.257812 20.046875 60.359375 20.050781 60.433594 19.988281 C 60.515625 19.917969 60.554688 19.730469 60.589844 19.625 C 60.664062 19.421875 60.78125 19.171875 60.890625 18.988281 C 61.265625 18.359375 62.015625 17.699219 62.785156 17.679688 C 63.496094 17.664062 63.84375 18.09375 63.8125 18.777344 C 63.796875 19.171875 63.609375 19.894531 63.507812 20.296875 C 63.507812 20.296875 63.269531 21.253906 63.269531 21.253906 C 63.269531 21.253906 62.75 23.160156 62.75 23.160156 C 62.660156 23.460938 62.5625 23.816406 62.394531 24.082031 C 62.148438 24.464844 61.773438 24.828125 61.296875 24.855469 C 61.027344 24.871094 60.730469 24.714844 60.484375 24.609375 Z M 53.964844 17.65625 C 54.636719 17.597656 55.078125 18.0625 55.324219 18.636719 C 55.410156 18.832031 55.503906 19.015625 55.480469 19.238281 C 55.480469 19.238281 55.058594 20.96875 55.058594 20.96875 C 55.058594 20.96875 54.6875 22.453125 54.6875 22.453125 C 54.6875 22.453125 54.472656 23.269531 54.472656 23.269531 C 54.394531 23.453125 54.175781 23.683594 54.039062 23.832031 C 53.578125 24.351562 53.015625 24.792969 52.296875 24.851562 C 52.132812 24.867188 51.917969 24.820312 51.765625 24.757812 C 51.222656 24.53125 51.0625 24.066406 51.058594 23.515625 C 51.058594 23.515625 51.058594 23.089844 51.058594 23.089844 C 51.058594 22.589844 51.304688 21.546875 51.441406 21.039062 C 51.625 20.375 51.824219 19.707031 52.148438 19.09375 C 52.433594 18.554688 52.953125 17.960938 53.539062 17.746094 C 53.679688 17.695312 53.816406 17.675781 53.964844 17.65625 Z M 76.21875 18.414062 C 75.980469 18.550781 75.917969 18.894531 76.152344 19.058594 C 76.265625 19.136719 76.402344 19.128906 76.535156 19.128906 C 76.535156 19.128906 78.765625 19.128906 78.765625 19.128906 C 78.765625 19.128906 88.085938 19.128906 88.085938 19.128906 C 88.320312 19.128906 88.601562 19.101562 88.644531 18.8125 C 88.6875 18.519531 88.445312 18.390625 88.191406 18.386719 C 88.191406 18.386719 85.816406 18.386719 85.816406 18.386719 C 85.816406 18.386719 79.296875 18.386719 79.296875 18.386719 C 79.296875 18.386719 77.277344 18.386719 77.277344 18.386719 C 77.035156 18.386719 76.417969 18.363281 76.21875 18.414062 Z M 76.25 22.089844 C 75.945312 22.222656 75.9375 22.589844 76.152344 22.746094 C 76.25 22.816406 76.382812 22.808594 76.5 22.808594 C 76.5 22.808594 78.765625 22.808594 78.765625 22.808594 C 78.765625 22.808594 88.121094 22.808594 88.121094 22.808594 C 88.242188 22.808594 88.363281 22.816406 88.472656 22.753906 C 88.714844 22.609375 88.695312 22.277344 88.472656 22.125 C 88.367188 22.054688 88.242188 22.066406 88.121094 22.066406 C 88.121094 22.066406 80.113281 22.066406 80.113281 22.066406 C 80.113281 22.066406 77.5625 22.066406 77.5625 22.066406 C 77.5625 22.066406 76.25 22.089844 76.25 22.089844 Z M 27.390625 26.519531 C 26.894531 25.601562 25.65625 25.851562 24.910156 26.269531 C 23.738281 26.917969 22.941406 28.378906 22.890625 29.703125 C 22.882812 29.863281 22.902344 29.910156 22.917969 30.058594 C 22.953125 30.367188 22.996094 30.691406 23.136719 30.976562 C 23.410156 31.519531 24.011719 31.921875 24.625 31.921875 C 24.761719 31.933594 24.996094 31.9375 25.121094 31.921875 C 25.464844 31.851562 25.875 31.632812 26.148438 31.417969 C 26.148438 31.417969 26.503906 31.117188 26.503906 31.117188 C 26.625 31.625 27.097656 31.925781 27.601562 31.929688 C 27.882812 31.933594 28.058594 31.964844 28.3125 31.808594 C 28.640625 31.605469 28.863281 31.117188 29.003906 30.765625 C 29.089844 30.558594 29.15625 30.34375 29.21875 30.128906 C 29.226562 30.054688 29.261719 29.921875 29.21875 29.855469 C 29.179688 29.769531 29.035156 29.769531 28.949219 29.777344 C 28.726562 29.792969 28.699219 29.980469 28.652344 30.164062 C 28.578125 30.449219 28.433594 30.914062 28.265625 31.152344 C 28.148438 31.328125 27.9375 31.542969 27.710938 31.40625 C 27.523438 31.292969 27.496094 31.105469 27.492188 30.90625 C 27.484375 30.628906 27.679688 29.96875 27.757812 29.667969 C 27.757812 29.667969 29.042969 24.503906 29.042969 24.503906 C 29.042969 24.503906 29.382812 23.089844 29.382812 23.089844 C 29.402344 22.988281 29.503906 22.664062 29.441406 22.582031 C 29.390625 22.507812 29.207031 22.523438 29.125 22.523438 C 29.125 22.523438 28.808594 22.558594 28.808594 22.558594 C 28.808594 22.558594 27.886719 22.625 27.886719 22.625 C 27.742188 22.640625 27.558594 22.617188 27.425781 22.65625 C 27.25 22.707031 27.136719 22.992188 27.199219 23.15625 C 27.246094 23.277344 27.386719 23.265625 27.496094 23.269531 C 27.667969 23.269531 28.039062 23.273438 28.125 23.449219 C 28.183594 23.574219 28.019531 24.097656 27.980469 24.257812 C 27.980469 24.257812 27.613281 25.707031 27.613281 25.707031 C 27.554688 25.945312 27.480469 26.304688 27.390625 26.519531 Z M 93.753906 23.070312 C 93.449219 23.128906 93.1875 23.253906 93.003906 23.515625 C 92.605469 24.082031 92.785156 25.292969 93.894531 25.316406 C 94.09375 25.324219 94.242188 25.304688 94.429688 25.230469 C 94.5625 25.179688 94.703125 25.101562 94.800781 24.992188 C 95.144531 24.625 95.160156 23.878906 94.855469 23.480469 C 94.601562 23.152344 94.15625 23.019531 93.753906 23.070312 Z M 13.039062 25.925781 C 12.734375 25.992188 12.511719 26.046875 12.222656 26.179688 C 11.019531 26.726562 9.886719 28.125 9.886719 29.492188 C 9.886719 29.882812 9.863281 30.132812 9.996094 30.515625 C 10.398438 31.6875 11.503906 32.101562 12.648438 31.914062 C 13.800781 31.730469 14.988281 30.75 15.472656 29.703125 C 15.734375 29.136719 15.808594 28.691406 15.804688 28.078125 C 15.800781 27.863281 15.757812 27.644531 15.699219 27.441406 C 15.617188 27.132812 15.417969 26.71875 15.195312 26.492188 C 14.875 26.167969 14.269531 25.921875 13.820312 25.925781 C 13.820312 25.925781 13.289062 25.925781 13.289062 25.925781 C 13.289062 25.925781 13.039062 25.925781 13.039062 25.925781 Z M 19.558594 25.925781 C 18.1875 26.1875 17.027344 27.261719 16.582031 28.570312 C 16.492188 28.84375 16.410156 29.171875 16.40625 29.457031 C 16.40625 29.457031 16.40625 29.878906 16.40625 29.878906 C 16.410156 30.625 16.898438 31.414062 17.574219 31.738281 C 18.070312 31.972656 18.636719 32 19.167969 31.914062 C 20.757812 31.660156 22.320312 29.996094 22.324219 28.359375 C 22.324219 28.359375 22.324219 28.042969 22.324219 28.042969 C 22.316406 27.546875 22.078125 26.886719 21.746094 26.523438 C 21.429688 26.183594 20.800781 25.921875 20.339844 25.925781 C 20.339844 25.925781 19.808594 25.925781 19.808594 25.925781 C 19.808594 25.925781 19.558594 25.925781 19.558594 25.925781 Z M 13.359375 26.390625 C 14.183594 26.3125 14.625 26.824219 14.632812 27.617188 C 14.636719 27.921875 14.589844 28.3125 14.523438 28.605469 C 14.425781 29.027344 14.269531 29.636719 14.089844 30.023438 C 13.730469 30.796875 13.023438 31.492188 12.117188 31.472656 C 11.753906 31.460938 11.328125 31.234375 11.160156 30.90625 C 11.09375 30.773438 11.070312 30.628906 11.050781 30.480469 C 11.035156 30.378906 11.019531 30.304688 11.027344 30.199219 C 11.113281 28.953125 11.566406 27.066406 12.828125 26.515625 C 13.035156 26.425781 13.140625 26.421875 13.359375 26.390625 Z M 19.878906 26.390625 C 20.675781 26.316406 21.144531 26.800781 21.152344 27.582031 C 21.15625 27.894531 21.132812 28.125 21.078125 28.429688 C 20.875 29.640625 20.285156 31.324219 18.851562 31.464844 C 18.171875 31.53125 17.671875 31.160156 17.574219 30.480469 C 17.5625 30.382812 17.542969 30.296875 17.550781 30.199219 C 17.640625 28.984375 18.058594 27.167969 19.238281 26.570312 C 19.464844 26.457031 19.632812 26.425781 19.878906 26.390625 Z M 26.042969 26.390625 C 26.570312 26.339844 26.875 26.617188 27.070312 27.085938 C 27.117188 27.199219 27.167969 27.316406 27.171875 27.441406 C 27.179688 27.601562 26.960938 28.390625 26.90625 28.605469 C 26.90625 28.605469 26.625 29.738281 26.625 29.738281 C 26.578125 29.917969 26.507812 30.261719 26.425781 30.410156 C 26.296875 30.648438 25.941406 30.988281 25.722656 31.148438 C 25.472656 31.335938 25.164062 31.488281 24.839844 31.46875 C 24.328125 31.4375 24.117188 31.125 24.054688 30.65625 C 24.042969 30.5625 24.027344 30.507812 24.035156 30.410156 C 24.105469 29.457031 24.359375 28.296875 24.792969 27.441406 C 25.054688 26.929688 25.460938 26.5 26.042969 26.390625 Z M 26.042969 26.390625 "/>
</g>
</svg>
