<?xml version="1.0" encoding="UTF-8"?>
<svg xmlns="http://www.w3.org/2000/svg" xmlns:xlink="http://www.w3.org/1999/xlink" width="100pt" height="37pt" viewBox="0 0 100 37" version="1.1">
<g id="surface1">
<path style="fill:none;stroke-width:60;stroke-linecap:butt;stroke-linejoin:miter;stroke:rgb(100%,0%,100%);stroke-opacity:1;stroke-miterlimit:4;" d="M 311.989992 344.989851 C 311.989992 344.989851 321.03004 324.001035 321.03004 324.001035 C 321.03004 324.001035 307.469968 303.012219 307.469968 303.012219 C 307.469968 303.012219 287.956693 295.500432 287.956693 295.500432 C 287.956693 295.500432 271.530265 295.500432 271.530265 295.500432 C 271.530265 295.500432 250.473567 304.448296 250.473567 304.448296 C 250.473567 304.448296 230.960292 319.471869 230.960292 319.471869 C 230.960292 319.471869 222.030489 343.553774 222.030489 343.553774 C 222.030489 343.553774 215.967042 368.961287 215.967042 368.961287 C 215.967042 368.961287 208.470417 399.008434 208.470417 399.008434 C 208.470417 399.008434 203.950392 436.4569 203.950392 436.4569 C 203.950392 436.4569 196.453767 511.4643 196.453767 511.4643 C 196.453767 511.4643 190.500565 591.000865 190.500565 591.000865 C 190.500565 591.000865 184.547362 656.949933 184.547362 656.949933 C 184.547362 656.949933 177.050737 720.026848 177.050737 721.462925 C 177.050737 723.009469 170.98729 767.969722 170.98729 767.969722 C 170.98729 767.969722 160.514064 816.023063 160.514064 816.023063 C 160.514064 816.023063 148.497414 842.977121 148.497414 842.977121 C 148.497414 842.977121 135.047587 855.018073 135.047587 855.018073 C 135.047587 855.018073 116.96749 866.948558 116.96749 866.948558 C 116.96749 866.948558 98.997638 871.477724 98.997638 871.477724 C 98.997638 871.477724 82.460965 866.948558 82.460965 866.948558 C 82.460965 866.948558 69.011137 855.018073 69.011137 855.018073 C 69.011137 855.018073 56.994488 837.011879 56.994488 837.011879 C 56.994488 837.011879 62.94769 826.517471 62.94769 826.517471 C 62.94769 826.517471 74.96434 821.988305 74.96434 821.988305 " transform="matrix(0.0354326,0,0,0.0353611,0.0000677881,0)"/>
</g>
</svg>
