<?xml version="1.0" encoding="UTF-8"?>
<svg xmlns="http://www.w3.org/2000/svg" xmlns:xlink="http://www.w3.org/1999/xlink" width="99pt" height="37pt" viewBox="0 0 99 37" version="1.1">
<g id="surface1">
<path style="fill:none;stroke-width:1;stroke-linecap:butt;stroke-linejoin:miter;stroke:rgb(0%,0%,0%);stroke-opacity:1;stroke-miterlimit:4;" d="M 657.010701 326.983656 C 657.010701 326.983656 666.030705 326.983656 666.030705 326.983656 C 666.030705 326.983656 675.050709 317.041585 675.050709 317.041585 C 675.050709 317.041585 689.97269 303.012219 689.97269 303.012219 C 689.97269 303.012219 707.010475 287.988646 707.010475 287.988646 C 707.010475 287.988646 722.043814 277.052368 722.043814 277.052368 C 722.043814 277.052368 738.970241 270.976658 738.970241 270.976658 C 738.970241 270.976658 758.012471 274.953486 758.012471 274.953486 C 758.012471 274.953486 761.019139 292.959681 761.019139 292.959681 C 761.019139 292.959681 748.992467 292.959681 748.992467 292.959681 C 748.992467 292.959681 750.996912 312.95429 750.996912 312.95429 C 750.996912 312.95429 734.96135 307.983254 734.96135 307.983254 C 734.96135 307.983254 730.95246 318.035792 730.95246 318.035792 " transform="matrix(0.0350783,0,0,0.0353611,0.0000671102,0)"/>
</g>
</svg>
