<?xml version="1.0" encoding="UTF-8"?>
<svg xmlns="http://www.w3.org/2000/svg" xmlns:xlink="http://www.w3.org/1999/xlink" width="99pt" height="37pt" viewBox="0 0 99 37" version="1.1">
<g id="surface1">
<path style="fill:none;stroke-width:1;stroke-linecap:butt;stroke-linejoin:miter;stroke:rgb(0%,0%,0%);stroke-opacity:1;stroke-miterlimit:4;" d="M 653.001811 340.018815 C 653.001811 340.018815 669.037373 343.995643 669.037373 343.995643 C 669.037373 343.995643 687.968245 349.960886 687.968245 349.960886 C 687.968245 349.960886 700.997139 366.972873 700.997139 366.972873 C 700.997139 366.972873 700.997139 385.973275 700.997139 385.973275 C 700.997139 385.973275 697.990471 404.973677 697.990471 404.973677 C 697.990471 404.973677 704.003807 420.991457 704.003807 420.991457 C 704.003807 420.991457 718.034924 428.945114 718.034924 428.945114 C 718.034924 428.945114 735.963573 426.956699 735.963573 426.956699 C 735.963573 426.956699 749.99469 408.950505 749.99469 408.950505 C 749.99469 408.950505 758.012471 391.054778 758.012471 391.054778 C 758.012471 391.054778 763.023584 365.978666 763.023584 365.978666 " transform="matrix(0.0350783,0,0,0.0353611,0.0000671102,0)"/>
</g>
</svg>
