<?xml version="1.0" encoding="UTF-8"?>
<svg xmlns="http://www.w3.org/2000/svg" xmlns:xlink="http://www.w3.org/1999/xlink" width="99pt" height="37pt" viewBox="0 0 99 37" version="1.1">
<g id="surface1">
<path style="fill:none;stroke-width:1;stroke-linecap:butt;stroke-linejoin:miter;stroke:rgb(0%,0%,0%);stroke-opacity:1;stroke-miterlimit:4;" d="M 408.014056 743.998285 C 408.014056 743.998285 387.969603 739.02725 387.969603 739.02725 C 387.969603 739.02725 366.032064 741.015664 366.032064 741.015664 C 366.032064 741.015664 337.96983 754.050823 337.96983 754.050823 C 337.96983 754.050823 322.045626 769.958136 322.045626 769.958136 C 322.045626 769.958136 311.021177 788.958538 311.021177 788.958538 C 311.021177 788.958538 303.003396 805.970525 303.003396 805.970525 C 303.003396 805.970525 295.987837 823.97672 295.987837 823.97672 C 295.987837 823.97672 295.987837 845.959742 295.987837 845.959742 C 295.987837 845.959742 298.994505 864.960144 298.994505 864.960144 C 298.994505 864.960144 307.012286 881.972132 307.012286 881.972132 C 307.012286 881.972132 324.050071 893.018877 324.050071 893.018877 C 324.050071 893.018877 345.987611 897.989912 345.987611 897.989912 C 345.987611 897.989912 370.040954 892.02467 370.040954 892.02467 C 370.040954 892.02467 393.982939 877.001096 393.982939 877.001096 C 393.982939 877.001096 410.018501 856.01228 410.018501 856.01228 C 410.018501 856.01228 421.04295 836.017672 421.04295 836.017672 C 421.04295 836.017672 428.949373 808.953146 428.949373 808.953146 C 428.949373 808.953146 427.947151 781.004881 427.947151 781.004881 C 427.947151 781.004881 421.04295 756.039237 421.04295 756.039237 C 421.04295 756.039237 397.99183 741.015664 397.99183 741.015664 " transform="matrix(0.0350783,0,0,0.0353611,0.0000671102,0)"/>
</g>
</svg>
