<?xml version="1.0" encoding="UTF-8"?>
<svg xmlns="http://www.w3.org/2000/svg" xmlns:xlink="http://www.w3.org/1999/xlink" width="99pt" height="37pt" viewBox="0 0 99 37" version="1.1">
<g id="surface1">
<path style="fill:none;stroke-width:1;stroke-linecap:butt;stroke-linejoin:miter;stroke:rgb(0%,0%,0%);stroke-opacity:1;stroke-miterlimit:4;" d="M 593.982033 747.975113 C 593.982033 747.975113 575.051161 740.021457 575.051161 740.021457 C 575.051161 740.021457 554.004486 740.021457 554.004486 740.021457 C 554.004486 740.021457 534.962256 744.992492 534.962256 744.992492 C 534.962256 744.992492 519.038052 755.04503 519.038052 755.04503 C 519.038052 755.04503 504.004713 773.051225 504.004713 773.051225 C 504.004713 773.051225 492.980264 793.045833 492.980264 793.045833 C 492.980264 793.045833 484.962483 814.034649 484.962483 814.034649 C 484.962483 814.034649 479.951369 837.011879 479.951369 837.011879 C 479.951369 837.011879 480.953592 858.000695 480.953592 858.000695 C 480.953592 858.000695 488.971373 878.98951 488.971373 878.98951 C 488.971373 878.98951 504.004713 891.030463 504.004713 891.030463 C 504.004713 891.030463 527.946698 897.989912 527.946698 897.989912 C 527.946698 897.989912 547.99115 892.02467 547.99115 892.02467 C 547.99115 892.02467 573.046716 877.001096 573.046716 877.001096 C 573.046716 877.001096 591.977588 858.994902 591.977588 858.994902 C 591.977588 858.994902 603.002037 839.000293 603.002037 839.000293 C 603.002037 839.000293 609.015373 816.023063 609.015373 815.028856 C 609.015373 814.034649 612.022041 793.045833 612.022041 793.045833 C 612.022041 793.045833 611.019818 771.94655 611.019818 771.94655 C 611.019818 771.94655 605.006482 757.033444 605.006482 757.033444 C 605.006482 757.033444 585.964252 741.015664 585.964252 741.015664 " transform="matrix(0.0350783,0,0,0.0353611,0.0000671102,0)"/>
</g>
</svg>
