<?xml version="1.0" encoding="UTF-8"?>
<svg xmlns="http://www.w3.org/2000/svg" xmlns:xlink="http://www.w3.org/1999/xlink" width="99pt" height="37pt" viewBox="0 0 99 37" version="1.1">
<g id="surface1">
<path style="fill:none;stroke-width:1;stroke-linecap:butt;stroke-linejoin:miter;stroke:rgb(0%,0%,0%);stroke-opacity:1;stroke-miterlimit:4;" d="M 2623.037431 432.038202 C 2623.037431 432.038202 2580.053216 428.945114 2580.053216 428.945114 C 2580.053216 428.945114 2600.988533 407.956298 2600.988533 407.956298 C 2600.988533 407.956298 2580.053216 391.054778 2580.053216 391.054778 C 2580.053216 391.054778 2589.964084 374.04279 2589.964084 374.04279 C 2589.964084 374.04279 2612.012982 356.036596 2612.012982 356.036596 C 2612.012982 356.036596 2640.96608 351.9493 2640.96608 350.955093 C 2640.96608 349.960886 2672.034982 349.960886 2672.034982 349.960886 C 2672.034982 349.960886 2703.994748 358.02501 2703.994748 358.02501 C 2703.994748 358.02501 2730.052536 381.00224 2730.052536 381.00224 C 2730.052536 381.00224 2720.03031 399.008434 2720.03031 399.008434 C 2720.03031 399.008434 2734.952291 431.043995 2734.952291 431.043995 C 2734.952291 431.043995 2714.016974 446.951308 2714.016974 446.951308 C 2714.016974 446.951308 2695.976967 475.010041 2695.976967 475.010041 C 2695.976967 475.010041 2673.037204 503.952513 2673.037204 503.952513 C 2673.037204 503.952513 2661.010533 533.99966 2660.00831 533.99966 C 2659.006088 533.99966 2653.994974 560.953718 2653.994974 560.953718 C 2653.994974 560.953718 2651.990529 593.983486 2651.990529 593.983486 C 2651.990529 593.983486 2665.019423 655.955726 2665.019423 655.955726 C 2665.019423 655.955726 2639.963858 675.950335 2639.963858 675.950335 C 2639.963858 675.950335 2670.030537 691.968115 2671.032759 691.968115 C 2672.034982 691.968115 2639.963858 714.945345 2639.963858 714.945345 " transform="matrix(0.0350783,0,0,0.0353611,0.0000671102,0)"/>
</g>
</svg>
