<?xml version="1.0" encoding="UTF-8"?>
<svg xmlns="http://www.w3.org/2000/svg" xmlns:xlink="http://www.w3.org/1999/xlink" width="99pt" height="37pt" viewBox="0 0 99 37" version="1.1">
<g id="surface1">
<path style="fill:none;stroke-width:1;stroke-linecap:butt;stroke-linejoin:miter;stroke:rgb(0%,0%,0%);stroke-opacity:1;stroke-miterlimit:4;" d="M 371.043177 329.966277 C 371.043177 329.966277 380.954045 307.983254 380.954045 307.983254 C 380.954045 307.983254 389.974049 288.982853 389.974049 288.982853 C 389.974049 288.982853 405.007388 278.046575 405.007388 278.046575 C 405.007388 278.046575 417.03406 271.970865 417.03406 271.970865 C 417.03406 271.970865 432.958264 272.965072 432.958264 272.965072 C 432.958264 272.965072 441.978268 286.994439 441.978268 286.994439 C 441.978268 286.994439 437.969377 305.99484 437.969377 306.989047 C 437.969377 307.983254 428.949373 334.053573 428.949373 334.053573 C 428.949373 334.053573 419.038505 359.019217 419.038505 359.019217 C 419.038505 359.019217 414.027392 388.955896 414.027392 388.955896 C 414.027392 388.955896 421.04295 414.032008 421.04295 414.032008 C 421.04295 414.032008 431.956041 424.968285 431.956041 424.968285 C 431.956041 424.968285 445.987158 428.945114 445.987158 428.945114 C 445.987158 428.945114 462.02272 425.962492 462.02272 425.962492 C 462.02272 425.962492 475.051614 420.991457 475.051614 420.991457 C 475.051614 420.991457 484.962483 413.037801 484.962483 413.037801 C 484.962483 413.037801 489.973596 403.97947 489.973596 403.97947 C 489.973596 403.97947 454.004939 400.996848 454.004939 400.996848 C 454.004939 400.996848 504.004713 221.04537 504.004713 221.04537 C 504.004713 221.04537 548.993373 226.016405 548.993373 226.016405 C 548.993373 226.016405 505.006935 400.996848 505.006935 400.996848 C 505.006935 400.996848 509.015826 416.020422 508.013603 416.020422 C 507.011381 416.020422 518.03583 424.968285 518.03583 424.968285 C 518.03583 424.968285 528.94892 426.956699 528.94892 426.956699 C 528.94892 426.956699 540.975592 425.962492 540.975592 425.962492 C 540.975592 425.962492 548.993373 415.026215 548.993373 415.026215 C 548.993373 415.026215 555.006709 400.996848 555.006709 400.996848 C 555.006709 400.996848 566.031158 362.996045 566.031158 362.996045 " transform="matrix(0.0350783,0,0,0.0353611,0.0000671102,0)"/>
</g>
</svg>
