<?xml version="1.0" encoding="UTF-8"?>
<svg xmlns="http://www.w3.org/2000/svg" xmlns:xlink="http://www.w3.org/1999/xlink" width="99pt" height="37pt" viewBox="0 0 99 37" version="1.1">
<g id="surface1">
<path style="fill:none;stroke-width:1;stroke-linecap:butt;stroke-linejoin:miter;stroke:rgb(0%,0%,0%);stroke-opacity:1;stroke-miterlimit:4;" d="M 1695.981496 574.983084 C 1695.981496 574.983084 1700.992609 550.01744 1700.992609 549.023233 C 1700.992609 548.029026 1717.028172 518.976086 1717.028172 518.976086 C 1717.028172 518.976086 1738.965711 501.964099 1738.965711 501.964099 C 1738.965711 501.964099 1766.025722 493.016235 1766.025722 492.022028 C 1766.025722 491.027821 1791.972153 492.022028 1791.972153 492.022028 C 1791.972153 492.022028 1809.009938 510.028223 1809.009938 510.028223 C 1809.009938 510.028223 1798.987711 540.959109 1798.987711 540.959109 C 1798.987711 540.959109 1767.027945 669.985092 1767.027945 669.985092 C 1767.027945 669.985092 1749.99016 706.991689 1749.99016 706.991689 C 1749.99016 706.991689 1724.04373 710.968517 1724.04373 710.968517 C 1724.04373 710.968517 1701.994832 701.026446 1701.994832 701.026446 C 1701.994832 701.026446 1689.968161 686.99708 1689.968161 686.99708 C 1689.968161 686.99708 1680.948157 661.037229 1680.948157 661.037229 C 1680.948157 661.037229 1724.04373 689.979701 1724.04373 689.979701 C 1724.04373 689.979701 1692.974828 642.036827 1692.974828 642.036827 C 1692.974828 642.036827 1737.963489 675.950335 1737.963489 675.950335 C 1737.963489 675.950335 1720.034839 633.972703 1720.034839 633.972703 " transform="matrix(0.0350783,0,0,0.0353611,0.0000671102,0)"/>
</g>
</svg>
