<?xml version="1.0" encoding="UTF-8"?>
<svg xmlns="http://www.w3.org/2000/svg" xmlns:xlink="http://www.w3.org/1999/xlink" width="99pt" height="37pt" viewBox="0 0 99 37" version="1.1">
<g id="surface1">
<path style="fill:none;stroke-width:1;stroke-linecap:butt;stroke-linejoin:miter;stroke:rgb(0%,0%,0%);stroke-opacity:1;stroke-miterlimit:4;" d="M 1903.998371 568.023635 C 1903.998371 568.023635 1879.945028 528.034417 1879.945028 528.034417 C 1879.945028 528.034417 1933.953692 554.988476 1934.955915 554.988476 C 1935.958138 554.988476 1892.973923 516.987672 1892.973923 516.987672 C 1892.973923 516.987672 1949.989254 530.022832 1949.989254 530.022832 C 1949.989254 530.022832 1903.998371 491.027821 1903.998371 491.027821 C 1903.998371 491.027821 1880.947251 490.033614 1880.947251 490.033614 C 1880.947251 490.033614 1869.031937 495.004649 1869.031937 495.004649 C 1869.031937 495.004649 1820.034387 706.991689 1820.034387 706.991689 C 1820.034387 706.991689 1843.976372 714.945345 1843.976372 714.945345 C 1843.976372 714.945345 1868.029715 707.985896 1868.029715 706.991689 C 1868.029715 705.997482 1890.969477 688.985494 1890.969477 688.985494 C 1890.969477 688.985494 1910.011707 665.014057 1910.011707 665.014057 C 1910.011707 665.014057 1927.049492 621.048011 1927.049492 621.048011 " transform="matrix(0.0350783,0,0,0.0353611,0.0000671102,0)"/>
</g>
</svg>
